<svg width="50" height="55" viewBox="0 0 50 55" fill="none" xmlns="http://www.w3.org/2000/svg">
<path d="M37.5 27.5H12.5V34.375H37.5V27.5ZM49.0885 11.2793L36.3411 0.751953C35.7552 0.268555 34.9609 0 34.1276 0H33.3333V13.75H50V13.0947C50 12.418 49.6745 11.7627 49.0885 11.2793ZM29.1667 14.6094V0H3.125C1.39323 0 0 1.14941 0 2.57812V52.4219C0 53.8506 1.39323 55 3.125 55H46.875C48.6068 55 50 53.8506 50 52.4219V17.1875H32.2917C30.5729 17.1875 29.1667 16.0273 29.1667 14.6094ZM8.33333 7.73438C8.33333 7.25957 8.79948 6.875 9.375 6.875H19.7917C20.3672 6.875 20.8333 7.25957 20.8333 7.73438V9.45312C20.8333 9.92793 20.3672 10.3125 19.7917 10.3125H9.375C8.79948 10.3125 8.33333 9.92793 8.33333 9.45312V7.73438ZM8.33333 14.6094C8.33333 14.1346 8.79948 13.75 9.375 13.75H19.7917C20.3672 13.75 20.8333 14.1346 20.8333 14.6094V16.3281C20.8333 16.8029 20.3672 17.1875 19.7917 17.1875H9.375C8.79948 17.1875 8.33333 16.8029 8.33333 16.3281V14.6094ZM41.6667 47.2656C41.6667 47.7404 41.2005 48.125 40.625 48.125H30.2083C29.6328 48.125 29.1667 47.7404 29.1667 47.2656V45.5469C29.1667 45.0721 29.6328 44.6875 30.2083 44.6875H40.625C41.2005 44.6875 41.6667 45.0721 41.6667 45.5469V47.2656ZM41.6667 25.7812V36.0938C41.6667 37.0434 40.7344 37.8125 39.5833 37.8125H10.4167C9.26562 37.8125 8.33333 37.0434 8.33333 36.0938V25.7812C8.33333 24.8316 9.26562 24.0625 10.4167 24.0625H39.5833C40.7344 24.0625 41.6667 24.8316 41.6667 25.7812Z" fill="#FFA500"/>
</svg>
