<svg width="62" height="60" viewBox="0 0 62 60" fill="none" xmlns="http://www.w3.org/2000/svg">
<path d="M30.6773 0C13.7369 0 0 13.7345 0 30.6773C0 44.2316 8.78996 55.7306 20.9791 59.7871C22.5122 60.071 23.0752 59.1216 23.0752 58.3113C23.0752 57.5799 23.0465 55.1631 23.0335 52.5997C14.4988 54.4555 12.698 48.9802 12.698 48.9802C11.3025 45.4343 9.29185 44.4916 9.29185 44.4916C6.50862 42.5876 9.50165 42.6265 9.50165 42.6265C12.5822 42.8431 14.2044 45.788 14.2044 45.788C16.9404 50.4779 21.3809 49.1219 23.1315 48.3383C23.4067 46.3553 24.2019 45.0022 25.0791 44.2361C18.2654 43.4602 11.1023 40.8298 11.1023 29.0752C11.1023 25.7261 12.3008 22.9893 14.2633 20.841C13.9447 20.0682 12.8948 16.9481 14.5604 12.7225C14.5604 12.7225 17.1365 11.898 22.9989 15.8671C25.4458 15.1872 28.0702 14.8465 30.6773 14.835C33.2844 14.8465 35.9108 15.1872 38.3624 15.8671C44.2178 11.898 46.7903 12.7225 46.7903 12.7225C48.46 16.9481 47.4096 20.0682 47.091 20.841C49.0579 22.9893 50.2482 25.7258 50.2482 29.0752C50.2482 40.8577 43.0716 43.4523 36.2406 44.2116C37.3409 45.1636 38.3213 47.0307 38.3213 49.8926C38.3213 53.9971 38.2857 57.3008 38.2857 58.3113C38.2857 59.1276 38.8379 60.0842 40.3931 59.783C52.5754 55.722 61.3543 44.227 61.3543 30.6773C61.3543 13.7345 47.6194 0 30.6773 0Z" fill="#FFA500"/>
</svg>
