<svg width="338" height="58" viewBox="0 0 338 58" fill="none" xmlns="http://www.w3.org/2000/svg">
<g filter="url(#filter0_d_2_52)">
<path d="M45.16 49H34.216L15.912 21.288V49H4.968V4.072H15.912L34.216 31.912V4.072H45.16V49ZM105.624 20.456C106.819 18.3653 108.568 16.6587 110.872 15.336C113.176 14.0133 115.8 13.352 118.744 13.352C121.902 13.352 124.739 14.0987 127.257 15.592C129.774 17.0853 131.758 19.1973 133.208 21.928C134.659 24.616 135.384 27.752 135.384 31.336C135.384 34.8773 134.659 38.0347 133.208 40.808C131.758 43.5813 129.752 45.736 127.192 47.272C124.675 48.808 121.859 49.576 118.744 49.576C115.715 49.576 113.048 48.9147 110.744 47.592C108.483 46.2693 106.776 44.584 105.624 42.536V49H99.8005V1.64H105.624V20.456ZM129.432 31.336C129.432 28.6907 128.899 26.3867 127.833 24.424C126.766 22.4613 125.315 20.968 123.48 19.944C121.688 18.92 119.704 18.408 117.528 18.408C115.395 18.408 113.411 18.9413 111.576 20.008C109.784 21.032 108.334 22.5467 107.224 24.552C106.158 26.5147 105.624 28.7973 105.624 31.4C105.624 34.0453 106.158 36.3707 107.224 38.376C108.334 40.3387 109.784 41.8533 111.576 42.92C113.411 43.944 115.395 44.456 117.528 44.456C119.704 44.456 121.688 43.944 123.48 42.92C125.315 41.8533 126.766 40.3387 127.833 38.376C128.899 36.3707 129.432 34.024 129.432 31.336ZM147.338 8.232C146.229 8.232 145.29 7.848 144.522 7.08C143.754 6.312 143.37 5.37333 143.37 4.264C143.37 3.15466 143.754 2.216 144.522 1.448C145.29 0.679998 146.229 0.295998 147.338 0.295998C148.405 0.295998 149.301 0.679998 150.026 1.448C150.794 2.216 151.178 3.15466 151.178 4.264C151.178 5.37333 150.794 6.312 150.026 7.08C149.301 7.848 148.405 8.232 147.338 8.232ZM150.154 13.928V49H144.33V13.928H150.154ZM159.184 31.336C159.184 27.752 159.91 24.616 161.36 21.928C162.811 19.1973 164.795 17.0853 167.312 15.592C169.872 14.0987 172.71 13.352 175.824 13.352C178.896 13.352 181.563 14.0133 183.824 15.336C186.086 16.6587 187.771 18.3227 188.88 20.328V13.928H194.768V49H188.88V42.472C187.728 44.52 186 46.2267 183.696 47.592C181.435 48.9147 178.79 49.576 175.76 49.576C172.646 49.576 169.83 48.808 167.312 47.272C164.795 45.736 162.811 43.5813 161.36 40.808C159.91 38.0347 159.184 34.8773 159.184 31.336ZM188.88 31.4C188.88 28.7547 188.347 26.4507 187.28 24.488C186.214 22.5253 184.763 21.032 182.928 20.008C181.136 18.9413 179.152 18.408 176.976 18.408C174.8 18.408 172.816 18.92 171.024 19.944C169.232 20.968 167.803 22.4613 166.736 24.424C165.67 26.3867 165.136 28.6907 165.136 31.336C165.136 34.024 165.67 36.3707 166.736 38.376C167.803 40.3387 169.232 41.8533 171.024 42.92C172.816 43.944 174.8 44.456 176.976 44.456C179.152 44.456 181.136 43.944 182.928 42.92C184.763 41.8533 186.214 40.3387 187.28 38.376C188.347 36.3707 188.88 34.0453 188.88 31.4Z" fill="white"/>
<path d="M61.029 4.392V32.616C61.029 36.584 61.989 39.528 63.909 41.448C65.8717 43.368 68.581 44.328 72.037 44.328C75.4503 44.328 78.117 43.368 80.037 41.448C81.9997 39.528 82.981 36.584 82.981 32.616V4.392H88.805V32.552C88.805 36.264 88.0583 39.4 86.565 41.96C85.0717 44.4773 83.045 46.3547 80.485 47.592C77.9677 48.8293 75.1303 49.448 71.973 49.448C68.8157 49.448 65.957 48.8293 63.397 47.592C60.8797 46.3547 58.8743 44.4773 57.381 41.96C55.9303 39.4 55.205 36.264 55.205 32.552V4.392H61.029Z" fill="#FAFF00"/>
<path d="M242.754 4.392L225.922 49H219.202L202.37 4.392H208.578L222.594 42.856L236.61 4.392H242.754Z" fill="#FFA500"/>
<path d="M253.428 8.232C252.319 8.232 251.38 7.848 250.612 7.08C249.844 6.312 249.46 5.37333 249.46 4.264C249.46 3.15466 249.844 2.216 250.612 1.448C251.38 0.679998 252.319 0.295998 253.428 0.295998C254.495 0.295998 255.391 0.679998 256.116 1.448C256.884 2.216 257.268 3.15466 257.268 4.264C257.268 5.37333 256.884 6.312 256.116 7.08C255.391 7.848 254.495 8.232 253.428 8.232ZM256.244 13.928V49H250.42V13.928H256.244ZM273.274 1.64V49H267.45V1.64H273.274ZM290.304 1.64V49H284.48V1.64H290.304ZM333.51 30.12C333.51 31.2293 333.446 32.4027 333.318 33.64H305.286C305.5 37.096 306.673 39.8053 308.806 41.768C310.982 43.688 313.606 44.648 316.678 44.648C319.196 44.648 321.286 44.072 322.95 42.92C324.657 41.7253 325.852 40.1467 326.534 38.184H332.806C331.868 41.5547 329.99 44.3067 327.174 46.44C324.358 48.5307 320.86 49.576 316.678 49.576C313.35 49.576 310.364 48.8293 307.718 47.336C305.116 45.8427 303.068 43.7307 301.574 41C300.081 38.2267 299.334 35.0267 299.334 31.4C299.334 27.7733 300.06 24.5947 301.51 21.864C302.961 19.1333 304.988 17.0427 307.59 15.592C310.236 14.0987 313.265 13.352 316.678 13.352C320.006 13.352 322.95 14.0773 325.51 15.528C328.07 16.9787 330.033 18.984 331.398 21.544C332.806 24.0613 333.51 26.92 333.51 30.12ZM327.494 28.904C327.494 26.6853 327.004 24.7867 326.022 23.208C325.041 21.5867 323.697 20.3707 321.99 19.56C320.326 18.7067 318.47 18.28 316.422 18.28C313.478 18.28 310.961 19.2187 308.87 21.096C306.822 22.9733 305.649 25.576 305.35 28.904H327.494Z" fill="#72F50B"/>
</g>
<defs>
<filter id="filter0_d_2_52" x="0.968018" y="0.29599" width="336.542" height="57.28" filterUnits="userSpaceOnUse" color-interpolation-filters="sRGB">
<feFlood flood-opacity="0" result="BackgroundImageFix"/>
<feColorMatrix in="SourceAlpha" type="matrix" values="0 0 0 0 0 0 0 0 0 0 0 0 0 0 0 0 0 0 127 0" result="hardAlpha"/>
<feOffset dy="4"/>
<feGaussianBlur stdDeviation="2"/>
<feComposite in2="hardAlpha" operator="out"/>
<feColorMatrix type="matrix" values="0 0 0 0 0 0 0 0 0 0 0 0 0 0 0 0 0 0 0.25 0"/>
<feBlend mode="normal" in2="BackgroundImageFix" result="effect1_dropShadow_2_52"/>
<feBlend mode="normal" in="SourceGraphic" in2="effect1_dropShadow_2_52" result="shape"/>
</filter>
</defs>
</svg>
