<svg width="92" height="92" viewBox="0 0 92 92" fill="none" xmlns="http://www.w3.org/2000/svg">
<path d="M78.4147 49.2557L68.4823 43.5602L66.769 42.8193L26.1367 43.0972V63.7259H78.4147V49.2557Z" fill="#FFA500"/>
<path d="M60.3385 61.8024C60.8247 60.1354 60.6395 58.6074 59.8291 57.4729C59.0883 56.4311 57.8381 55.8291 56.3332 55.7596L27.8326 55.3892C27.6474 55.3892 27.4854 55.2966 27.3927 55.1577C27.3001 55.0188 27.277 54.8335 27.3233 54.6483C27.4159 54.3705 27.6937 54.1621 27.9947 54.139L56.7499 53.7685C60.1533 53.6065 63.8577 50.8513 65.1542 47.4711L66.798 43.1879C66.8675 43.0027 66.8906 42.8175 66.8443 42.6323C64.9921 34.2511 57.5139 28 48.5771 28C40.3349 28 33.3429 33.325 30.8424 40.7106C29.2218 39.5067 27.1612 38.8584 24.9386 39.0668C20.9796 39.4604 17.8077 42.6323 17.4141 46.5913C17.3215 47.61 17.3909 48.6056 17.6225 49.5317C11.163 49.7169 6 54.9956 6 61.5014C6 62.0802 6.0463 62.659 6.11576 63.2378C6.16207 63.5157 6.39359 63.724 6.67142 63.724H59.2735C59.5745 63.724 59.8523 63.5157 59.9449 63.2147L60.3385 61.8024Z" fill="#FFA500"/>
<path d="M69.4211 43.5352C69.1664 43.5352 68.8886 43.5352 68.6339 43.5583C68.4487 43.5583 68.2866 43.6972 68.2171 43.8824L67.1058 47.7489C66.6196 49.4158 66.8049 50.9439 67.6152 52.0784C68.3561 53.1202 69.6063 53.7222 71.1112 53.7916L77.1771 54.1621C77.3623 54.1621 77.5244 54.2547 77.617 54.3936C77.7096 54.5325 77.7328 54.7409 77.6865 54.9029C77.5938 55.1808 77.316 55.3891 77.015 55.4123L70.6944 55.7827C67.2679 55.9448 63.5867 58.6999 62.2902 62.0802L61.8271 63.2609C61.7345 63.4925 61.8966 63.724 62.1512 63.724H83.8681C84.1228 63.724 84.3543 63.5619 84.4238 63.3072C84.7942 61.9644 85.0026 60.5521 85.0026 59.0935C85.0026 50.5272 78.0106 43.5352 69.4211 43.5352Z" fill="#FFA500"/>
</svg>
