<svg width="55" height="57" viewBox="0 0 55 57" fill="none" xmlns="http://www.w3.org/2000/svg">
<path d="M54.9993 28.732C54.9993 26.8369 54.8159 24.8808 54.5103 23.0469H28.041V33.8669H43.2012C42.5899 37.3513 40.5726 40.4078 37.5773 42.3639L46.6245 49.3939C51.9428 44.4423 54.9993 37.229 54.9993 28.732Z" fill="#FFA500"/>
<path d="M28.0457 56.1181C35.6258 56.1181 41.9833 53.6117 46.6292 49.3326L37.5819 42.3638C35.0756 44.0755 31.8357 45.0535 28.0457 45.0535C20.7101 45.0535 14.536 40.102 12.2742 33.5L2.98242 40.6522C7.75055 50.1273 17.4091 56.1181 28.0457 56.1181Z" fill="#FFA500"/>
<path d="M12.2718 33.439C11.1104 29.9546 11.1104 26.1645 12.2718 22.6801L2.98008 15.4668C-0.993361 23.4137 -0.993361 32.7666 2.98008 40.6523L12.2718 33.439Z" fill="#FFA500"/>
<path d="M28.0457 11.1267C32.0191 11.0656 35.9314 12.5938 38.8045 15.3447L46.8126 7.27552C41.7388 2.50739 35.0145 -0.060063 28.0457 0.00106689C17.4091 0.00106689 7.75055 5.9918 2.98242 15.4669L12.2742 22.6803C14.536 16.0171 20.7101 11.1267 28.0457 11.1267Z" fill="#FFA500"/>
</svg>
