<svg width="82" height="44" viewBox="0 0 82 44" fill="none" xmlns="http://www.w3.org/2000/svg">
<path d="M55.7781 32.8002C55.63 32.725 54.4729 32.0395 52.7532 32.0395C50.4288 32.0395 48.8161 33.6566 48.8161 35.8399C48.8161 37.957 50.3593 39.6437 52.7532 39.6437C54.4433 39.6437 55.6198 38.9718 55.7781 38.8875V42.7118C55.3271 42.8371 54.0982 43.2186 52.5015 43.2186C48.4574 43.2186 44.9075 40.4307 44.9075 35.8387C44.9075 31.585 48.1192 28.4645 52.5015 28.4645C54.1871 28.4645 55.4376 28.8745 55.7781 28.9759V32.8002ZM18.2488 32.8002C18.1042 32.725 16.9482 32.0395 15.2285 32.0395C12.8995 32.0395 11.288 33.6566 11.288 35.8399C11.288 37.957 12.8323 39.6437 15.2285 39.6437C16.9186 39.6437 18.0939 38.9718 18.2488 38.8875V42.7118C17.8024 42.8371 16.5747 43.2186 14.9688 43.2186C10.9281 43.2186 7.38281 40.4307 7.38281 35.8387C7.38281 31.585 10.5944 28.4645 14.97 28.4645C16.6624 28.4645 17.9106 28.8745 18.2488 28.9759V32.8002V32.8002ZM67.0882 32.093C64.9551 32.093 63.3709 33.7717 63.3709 35.8399C63.3709 37.9126 64.9551 39.5902 67.0882 39.5902C69.2191 39.5902 70.8078 37.9126 70.8078 35.8399C70.8078 33.7717 69.2191 32.093 67.0882 32.093ZM74.6173 35.8399C74.6173 39.9159 71.4706 43.2186 67.0894 43.2186C62.7058 43.2186 59.5637 39.9159 59.5637 35.8387C59.5637 31.7707 62.707 28.4645 67.0882 28.4645C71.4706 28.4645 74.6173 31.7707 74.6173 35.8399M40.4215 31.9563C40.368 31.9392 38.8544 31.5213 37.6108 31.5213C36.1701 31.5213 35.3866 32.0042 35.3866 32.6886C35.3866 33.5564 36.4434 33.8593 37.0345 34.0461L38.0265 34.3616C40.3612 35.1042 41.4237 36.702 41.4237 38.4376C41.4237 42.0171 38.2759 43.2197 35.5244 43.2197C33.6122 43.2197 31.8208 42.8667 31.6442 42.8303V39.5503C31.9608 39.63 33.4687 40.081 35.0392 40.081C36.8284 40.081 37.6506 39.5572 37.6506 38.7508C37.6506 38.0288 36.9388 37.6119 36.0471 37.3318C35.8307 37.2589 35.5027 37.1564 35.2795 37.0835C33.2774 36.4503 31.6078 35.2727 31.6078 32.9152C31.6078 30.2503 33.6031 28.4611 36.9172 28.4611C38.6677 28.4611 40.3145 28.8859 40.4215 28.9144V31.9551V31.9563Z" fill="#FFA500"/>
<path d="M3.57037 13.4049C3.57037 12.4232 2.7686 11.6271 1.78575 11.6271C0.802906 11.6271 0 12.4232 0 13.4037V17.145C0.0117623 17.6106 0.205008 18.0533 0.538513 18.3785C0.872017 18.7036 1.31939 18.8856 1.78519 18.8856C2.25099 18.8856 2.69835 18.7036 3.03186 18.3785C3.36536 18.0533 3.55861 17.6106 3.57037 17.145V13.4049V13.4049ZM13.3749 8.49639C13.3749 8.02293 13.1868 7.56885 12.8521 7.23407C12.5173 6.89928 12.0632 6.7112 11.5897 6.7112C11.1163 6.7112 10.6622 6.89928 10.3274 7.23407C9.99264 7.56885 9.80456 8.02293 9.80456 8.49639V17.145C9.80456 17.6184 9.99264 18.0725 10.3274 18.4073C10.6622 18.7421 11.1163 18.9302 11.5897 18.9302C12.0632 18.9302 12.5173 18.7421 12.8521 18.4073C13.1868 18.0725 13.3749 17.6184 13.3749 17.145V8.49521V8.49639ZM23.1806 1.77931C23.1806 0.797597 22.3789 0.000372738 21.396 0.000372738C20.412 0.000372738 19.6103 0.797597 19.6103 1.77931V20.6994C19.622 21.165 19.8153 21.6077 20.1488 21.9329C20.4823 22.258 20.9296 22.4401 21.3954 22.4401C21.8612 22.4401 22.3086 22.258 22.6421 21.9329C22.9756 21.6077 23.1689 21.165 23.1806 20.6994V1.77931V1.77931ZM32.9852 8.49639C32.9852 8.02293 32.7971 7.56885 32.4623 7.23407C32.1275 6.89928 31.6735 6.7112 31.2 6.7112C30.7265 6.7112 30.2725 6.89928 29.9377 7.23407C29.6029 7.56885 29.4148 8.02293 29.4148 8.49639V17.145C29.4148 17.6184 29.6029 18.0725 29.9377 18.4073C30.2725 18.7421 30.7265 18.9302 31.2 18.9302C31.6735 18.9302 32.1275 18.7421 32.4623 18.4073C32.7971 18.0725 32.9852 17.6184 32.9852 17.145V8.49521V8.49639ZM42.7795 13.4049C42.7798 12.9339 42.5931 12.4821 42.2603 12.1487C41.9276 11.8154 41.4761 11.6277 41.0051 11.6271C40.5331 11.6268 40.0802 11.8137 39.7457 12.1467C39.4112 12.4797 39.2223 12.9317 39.2205 13.4037V17.145C39.2205 17.6169 39.408 18.0696 39.7417 18.4033C40.0754 18.737 40.5281 18.9245 41 18.9245C41.472 18.9245 41.9246 18.737 42.2583 18.4033C42.592 18.0696 42.7795 17.6169 42.7795 17.145V13.4049V13.4049ZM52.5886 8.49639C52.5769 8.03223 52.3842 7.59101 52.0518 7.26687C51.7194 6.94274 51.2734 6.76132 50.8091 6.76132C50.3448 6.76132 49.8989 6.94274 49.5664 7.26687C49.234 7.59101 49.0414 8.03223 49.0296 8.49639V17.145C49.0296 17.6169 49.2171 18.0696 49.5508 18.4033C49.8845 18.737 50.3372 18.9245 50.8091 18.9245C51.2811 18.9245 51.7337 18.737 52.0674 18.4033C52.4011 18.0696 52.5886 17.6169 52.5886 17.145V8.49521V8.49639ZM62.4 1.77931C62.4 1.30736 62.2125 0.854731 61.8788 0.521012C61.5451 0.187293 61.0925 -0.000183352 60.6205 -0.000183352C60.1486 -0.000183352 59.6959 0.187293 59.3622 0.521012C59.0285 0.854731 58.841 1.30736 58.841 1.77931V20.6994C58.8305 20.9396 58.8687 21.1795 58.9534 21.4046C59.0381 21.6296 59.1674 21.8352 59.3337 22.009C59.5 22.1827 59.6997 22.3209 59.9209 22.4154C60.142 22.5099 60.38 22.5586 60.6205 22.5586C60.861 22.5586 61.099 22.5099 61.3201 22.4154C61.5413 22.3209 61.741 22.1827 61.9073 22.009C62.0736 21.8352 62.2029 21.6296 62.2876 21.4046C62.3723 21.1795 62.4105 20.9396 62.4 20.6994V1.77931V1.77931ZM72.2091 8.49639C72.2091 7.51354 71.413 6.71516 70.4074 6.71516C69.9355 6.71547 69.483 6.90312 69.1494 7.23692C68.8159 7.57071 68.6285 8.0233 68.6285 8.49521V17.145C68.6285 18.1324 69.4257 18.9284 70.4074 18.9284C71.413 18.9284 72.2091 18.1324 72.2091 17.145V8.49521V8.49639ZM82 13.4049C82 12.9325 81.8123 12.4794 81.4783 12.1454C81.1443 11.8113 80.6912 11.6237 80.2188 11.6237C79.7464 11.6237 79.2933 11.8113 78.9593 12.1454C78.6253 12.4794 78.4376 12.9325 78.4376 13.4049V17.145C78.4376 18.1324 79.2359 18.9295 80.2188 18.9295C81.2005 18.9295 81.9989 18.1324 81.9989 17.145V13.4049H82Z" fill="#FFA500"/>
<path d="M26.7908 42.9662H23.1953V28.7178H26.7908V42.9662V42.9662Z" fill="#FFA500"/>
</svg>
