<svg width="83" height="59" viewBox="0 0 83 59" fill="none" xmlns="http://www.w3.org/2000/svg">
<path d="M34.5239 6.35451C37.2057 3.57618 40.9423 1.8212 45.0627 1.8212C50.5554 1.8212 55.3143 4.8868 57.8682 9.42123C60.072 8.43153 62.5305 7.88843 65.117 7.88843C75.0173 7.88843 83 15.9676 83 25.9319C83 35.8962 74.9848 43.9732 65.117 43.9732C63.9051 43.9732 62.7224 43.8452 61.6048 43.6219C59.3695 47.6133 55.0898 50.3288 50.1705 50.3288C48.1283 50.3288 46.1792 49.8496 44.4545 49.0193C42.1878 54.3526 36.8859 58.1196 30.7222 58.1196C24.3037 58.1196 18.811 54.0643 16.7026 48.346C15.7673 48.5379 14.815 48.6342 13.8603 48.6333C6.19628 48.6333 0 42.3741 0 34.6137C0 29.452 2.77834 24.9052 6.93013 22.4781C6.06835 20.5301 5.58921 18.3599 5.58921 16.0596C5.56004 7.21741 12.8089 2.27268e-05 21.6847 2.27268e-05C24.17 -0.00415395 26.6225 0.56741 28.8498 1.6699C31.0772 2.77239 33.0189 4.37583 34.5227 6.35451" fill="#FFA500"/>
<path d="M10.0292 32.0409L10.3886 31.0935C10.4541 30.9304 10.5517 30.9959 10.6183 31.028L10.9123 31.2232C11.9253 31.8779 12.8739 31.8779 13.1679 31.8779C13.9201 31.8779 14.4082 31.4851 14.4082 30.9304V30.8982C14.4082 30.3102 13.6893 30.0828 12.8394 29.8187L12.6442 29.7532C11.5003 29.4259 10.2577 28.9378 10.2577 27.4977V27.4655C10.2577 26.0931 11.3694 25.1112 12.9704 25.1112H13.1334C14.0809 25.1112 14.9641 25.373 15.6176 25.7979C15.683 25.8301 15.7485 25.8956 15.7152 25.9932L15.3557 26.9407C15.2902 27.1037 15.126 27.0061 15.126 27.0061C14.538 26.6788 13.656 26.4503 12.9038 26.4503C12.217 26.4503 11.7921 26.8097 11.7921 27.3001V27.3323C11.7921 27.8881 12.5443 28.1477 13.3941 28.4118L13.5572 28.444C14.7011 28.8034 15.9116 29.2938 15.9116 30.6995V30.7317C15.9116 32.2362 14.832 33.1504 13.1001 33.1504C12.2503 33.1504 11.4349 33.0194 10.5506 32.5623C10.3875 32.4647 10.2233 32.3993 10.0602 32.2683C10.028 32.2029 9.96256 32.1707 10.028 32.0386L10.0292 32.0409ZM35.5249 32.0409L35.8843 31.0935C35.9498 30.9304 36.0796 30.9959 36.114 31.028L36.408 31.2232C37.421 31.8779 38.3696 31.8779 38.6636 31.8779C39.4159 31.8779 39.9039 31.4851 39.9039 30.9304V30.8982C39.9039 30.3102 39.185 30.0828 38.3352 29.8187L38.1399 29.7532C36.9961 29.4259 35.7534 28.9378 35.7534 27.4977V27.4655C35.7534 26.0931 36.8651 25.1112 38.4661 25.1112H38.6292C39.5766 25.1112 40.4598 25.373 41.1133 25.7979C41.1787 25.8301 41.2442 25.8956 41.2109 25.9932L40.8514 26.9407C40.786 27.1037 40.6217 27.0061 40.6217 27.0061C40.0337 26.6788 39.1517 26.4503 38.3995 26.4503C37.7127 26.4503 37.2878 26.8097 37.2878 27.3001V27.3323C37.2878 27.8881 38.04 28.1477 38.8899 28.4118L39.0529 28.444C40.1968 28.8034 41.4073 29.2938 41.4073 30.6995V30.7317C41.4073 32.2362 40.3277 33.1504 38.5959 33.1504C37.746 33.1504 36.9306 33.0194 36.0463 32.5623C35.8832 32.4647 35.719 32.3993 35.5559 32.2683C35.5559 32.2029 35.4904 32.1707 35.5237 32.0386L35.5249 32.0409ZM54.417 27.562C54.5479 28.0524 54.6467 28.5749 54.6467 29.1308C54.6467 29.6866 54.5812 30.2103 54.417 30.6995C54.286 31.1899 54.0575 31.6149 53.7623 31.9628C53.46 32.3257 53.0801 32.6161 52.6506 32.8127C52.1936 33.0079 51.6699 33.1067 51.0819 33.1067C50.4938 33.1067 49.9702 33.0091 49.5131 32.8127C49.056 32.6163 48.6977 32.3223 48.4014 31.9628C48.1051 31.6034 47.8788 31.1785 47.7467 30.6995C47.6147 30.2206 47.5171 29.6866 47.5171 29.1308C47.5171 28.5749 47.5825 28.0512 47.7467 27.562C47.8777 27.0716 48.1062 26.6467 48.4014 26.2987C48.7037 25.9358 49.0836 25.6454 49.5131 25.4488C50.0081 25.2337 50.5421 25.1223 51.0819 25.1215C51.6699 25.1215 52.1936 25.2191 52.6506 25.4488C53.1077 25.644 53.466 25.9392 53.7623 26.2987C54.0586 26.6581 54.2849 27.0831 54.417 27.562ZM52.9469 29.0986C52.9469 28.2487 52.7839 27.5941 52.4899 27.137C52.1959 26.68 51.7055 26.4503 51.0841 26.4503C50.4295 26.4503 49.9724 26.68 49.6784 27.137C49.3844 27.5941 49.2214 28.2487 49.2214 29.0986C49.2214 29.9485 49.3844 30.6031 49.6784 31.0923C49.9724 31.5494 50.4307 31.7791 51.0841 31.7791C51.7376 31.7791 52.1959 31.5494 52.4899 31.0923C52.8172 30.6352 52.9469 29.9485 52.9469 29.0986ZM66.3804 31.5494L66.7399 32.5302C66.7721 32.6611 66.6744 32.6933 66.6744 32.6933C66.1186 32.923 65.3675 33.0527 64.6153 33.0527C63.352 33.0527 62.393 32.6933 61.7395 31.9732C61.086 31.2531 60.7587 30.2735 60.7587 29.0641C60.7587 28.5083 60.8242 27.9846 60.9884 27.4954C61.1527 27.0061 61.3812 26.58 61.7074 26.2321C62.034 25.8673 62.4355 25.5774 62.8845 25.3822C63.4016 25.1639 63.9575 25.0526 64.5188 25.0549C64.8792 25.0563 65.2392 25.0782 65.5972 25.1204C65.9245 25.1858 66.3816 25.2834 66.578 25.3822C66.6101 25.3822 66.7089 25.4477 66.6756 25.5453L66.3161 26.5261C66.2506 26.6891 66.153 26.6237 66.153 26.6237C65.6626 26.4606 65.2056 26.394 64.6164 26.394C63.8975 26.394 63.3531 26.6237 63.0143 27.1129C62.6548 27.57 62.4585 28.1925 62.4585 29.0423C62.4585 29.9576 62.6881 30.6111 63.0786 31.036C63.4691 31.461 64.0261 31.6562 64.7439 31.6562C65.0379 31.6562 65.2997 31.6241 65.5283 31.5907C65.7568 31.5574 65.9854 31.4931 66.2151 31.3955C66.1829 31.461 66.3127 31.4277 66.3781 31.5586L66.3804 31.5494ZM73.7995 27.268C74.1268 28.3797 73.9625 29.3271 73.9304 29.3926C73.9304 29.5235 73.7995 29.5235 73.7995 29.5235H68.8645C68.8967 30.2758 69.0598 30.7868 69.4525 31.1578C69.812 31.5172 70.3679 31.7458 71.1523 31.7458C72.3294 31.7458 72.8175 31.5161 73.1793 31.3863C73.1793 31.3863 73.3102 31.3542 73.3745 31.4839L73.7018 32.3993C73.7673 32.5623 73.7018 32.5945 73.6697 32.629C73.3757 32.792 72.6246 33.1193 71.1856 33.1193C70.4988 33.1193 69.8786 33.0217 69.3882 32.8253C68.8978 32.629 68.4729 32.3683 68.1479 32.0099C67.8229 31.6516 67.592 31.2255 67.429 30.7696C67.2659 30.2792 67.1993 29.7567 67.1993 29.2008C67.1993 28.645 67.2647 28.1213 67.429 27.632C67.5599 27.1416 67.7884 26.7167 68.0836 26.3687C68.3787 26.0207 68.7704 25.7141 69.2274 25.5189C69.6845 25.2892 70.2404 25.1916 70.8617 25.1916C71.3842 25.1916 71.8746 25.2892 72.2674 25.4856C72.5614 25.6165 72.8876 25.845 73.2149 26.2045C73.378 26.3354 73.672 26.8247 73.8029 27.284L73.7995 27.268ZM68.8955 28.3131H72.3926C72.3604 27.856 72.2617 27.4632 72.0653 27.1359C71.7713 26.6788 71.3464 26.417 70.6929 26.417C70.0394 26.417 69.5812 26.6788 69.2872 27.1359C69.0919 27.4299 68.9932 27.8227 68.8944 28.3131H68.8955ZM34.3477 27.268C34.675 28.3797 34.5108 29.3271 34.5108 29.3926C34.5108 29.5235 34.3799 29.5235 34.3799 29.5235H29.445C29.4771 30.2758 29.6402 30.7868 30.033 31.1578C30.3924 31.5172 30.9483 31.7458 31.7327 31.7458C32.9099 31.7458 33.3979 31.5161 33.7597 31.3863C33.7597 31.3863 33.8906 31.3542 33.9549 31.4839L34.2823 32.3993C34.3477 32.5623 34.2823 32.5945 34.2501 32.629C33.9561 32.792 33.205 33.1193 31.766 33.1193C31.0792 33.1193 30.459 33.0217 29.9687 32.8253C29.4783 32.629 29.0533 32.3683 28.7283 32.0099C28.4033 31.6516 28.1725 31.2255 28.0094 30.7696C27.8463 30.2792 27.7797 29.7567 27.7797 29.2008C27.7797 28.645 27.8452 28.1213 28.0094 27.632C28.1403 27.1416 28.3689 26.7167 28.664 26.3687C28.9592 26.0207 29.3508 25.7141 29.8079 25.5189C30.265 25.2892 30.8208 25.1916 31.4421 25.1916C31.9647 25.1916 32.4551 25.2892 32.8478 25.4856C33.1418 25.6165 33.468 25.845 33.7953 26.2045C33.9262 26.3354 34.2524 26.8247 34.3512 27.284L34.3477 27.268ZM29.4438 28.3131H32.9742C32.942 27.856 32.8432 27.4632 32.6469 27.1359C32.3528 26.6788 31.9279 26.417 31.2744 26.417C30.621 26.417 30.1627 26.6788 29.8687 27.1359C29.6391 27.4299 29.5414 27.8227 29.4438 28.3131V28.3131ZM20.7822 28.0512L21.5976 28.1488V27.9536C21.5976 27.299 21.4666 26.9728 21.2048 26.7764C20.9429 26.58 20.518 26.4491 19.9955 26.4491C19.9955 26.4491 18.7861 26.4491 17.8387 26.9395C17.8065 26.9717 17.7732 26.9717 17.7732 26.9717C17.7732 26.9717 17.6423 27.0038 17.6101 26.9062L17.2507 25.9587C17.1852 25.8278 17.2828 25.7635 17.2828 25.7635C17.7399 25.404 18.7873 25.2076 18.7873 25.2076C19.1468 25.1422 19.7348 25.0767 20.0942 25.0767C21.075 25.0767 21.8261 25.3064 22.3498 25.7635C22.8735 26.2206 23.1342 26.9407 23.1342 27.9536V32.4636C23.1342 32.4636 23.1342 32.5945 23.0366 32.6267C23.0366 32.6267 22.8413 32.6921 22.6771 32.7243L21.4368 32.954C20.9464 33.0516 20.456 33.0849 19.9323 33.0849C19.4419 33.0849 19.017 33.0527 18.6254 32.954C18.2337 32.8552 17.9064 32.7243 17.6124 32.529C17.3506 32.3338 17.122 32.072 16.9578 31.7446C16.7947 31.4506 16.7281 31.0579 16.7281 30.6329C16.7281 30.208 16.8257 29.8175 16.99 29.4891C17.1542 29.1606 17.4149 28.9011 17.7089 28.6737C18.0029 28.4463 18.3635 28.3142 18.7218 28.1833C19.1146 28.0857 19.5062 28.0202 19.9312 28.0202L20.781 28.0524L20.7822 28.0512ZM18.8206 31.5161C18.8206 31.5161 19.2777 31.8756 20.2585 31.8101C20.9774 31.7779 21.5987 31.647 21.5987 31.647V29.3915C21.5987 29.3915 20.9785 29.2938 20.2585 29.2938C19.2455 29.2938 18.8206 29.6533 18.8206 29.6533C18.5266 29.8485 18.3957 30.1759 18.3957 30.6008C18.391 30.8292 18.4473 31.0548 18.5588 31.2543C18.5909 31.3197 18.6242 31.3852 18.8206 31.5161V31.5161ZM60.4934 25.5349C60.4613 25.6659 60.1994 26.3503 60.134 26.58C60.1018 26.6777 60.0364 26.711 59.9387 26.711C59.9387 26.711 59.6447 26.6455 59.3829 26.6455C59.1618 26.6506 58.9423 26.6834 58.7294 26.7431C58.4997 26.8086 58.3045 26.9384 58.1093 27.1026C57.914 27.2668 57.7819 27.5275 57.6843 27.8215C57.5867 28.1155 57.5212 28.6059 57.5212 29.1285V32.7886C57.5212 32.8862 57.4558 32.9517 57.3582 32.9517H56.0512C55.9536 32.9517 55.8881 32.8862 55.8881 32.7886V25.4396C55.8881 25.342 55.9536 25.2765 56.0191 25.2765H57.2824C57.38 25.2765 57.4133 25.342 57.4133 25.4396V26.0276C57.6085 25.7658 57.9358 25.5372 58.2287 25.4075C58.5215 25.2777 58.8833 25.1778 59.492 25.2122C59.8193 25.2444 60.2442 25.3098 60.3074 25.3432C60.4383 25.3753 60.5026 25.4086 60.4705 25.5384L60.4934 25.5349ZM48.3658 22.1355C48.3979 22.1355 48.4967 22.201 48.4634 22.2986L48.0706 23.3437C48.0385 23.4092 48.0051 23.4746 47.8409 23.4092C47.8088 23.4092 47.7433 23.377 47.5791 23.3437C47.4815 23.3115 47.3172 23.3115 47.1863 23.3115C46.9911 23.3115 46.8268 23.3437 46.6637 23.377C46.5007 23.4103 46.3697 23.5079 46.2388 23.6388C46.1079 23.7698 45.977 23.9329 45.8794 24.1614C45.6841 24.6839 45.6175 25.2409 45.6175 25.2731H47.1863C47.3172 25.2731 47.3494 25.3386 47.3494 25.4362L47.1541 26.4491C47.122 26.6122 46.9911 26.58 46.9911 26.58H45.3568L44.3117 32.8885C44.1808 33.5431 44.0499 34.0978 43.8868 34.5538C43.7237 35.0097 43.5273 35.3382 43.2322 35.6655C42.9703 35.9595 42.6763 36.188 42.3168 36.2856C41.9895 36.4166 41.5646 36.4809 41.1075 36.4809C40.8778 36.4809 40.6504 36.4809 40.3886 36.4154C40.2313 36.3914 40.0777 36.3474 39.9315 36.2845C39.866 36.2523 39.8339 36.1869 39.866 36.0892L40.2255 35.0763C40.291 34.9454 40.3886 35.0109 40.3886 35.0109L40.6504 35.1085C40.7814 35.1406 40.9123 35.1406 41.0432 35.1406C41.2729 35.1406 41.4681 35.1085 41.6312 35.043C41.8265 34.9775 41.9585 34.8478 42.0883 34.6835C42.2181 34.5193 42.318 34.2908 42.4478 33.9968C42.5685 33.5995 42.6667 33.1958 42.7418 32.7874L43.8535 26.6088H42.7739C42.643 26.6088 42.6109 26.5433 42.6109 26.4457L42.8061 25.4327C42.8382 25.2697 42.9692 25.3018 42.9692 25.3018H44.0809L44.1463 24.9745C44.3094 23.9937 44.6367 23.2426 45.1271 22.7522C45.6175 22.2618 46.3364 22 47.2173 22C47.4792 22 47.7077 22.0322 47.9041 22.0655C48.035 22.0333 48.1981 22.0655 48.3612 22.1309L48.3658 22.1355ZM26.3361 32.7587C26.3361 32.8563 26.2706 32.9218 26.2052 32.9218H24.8982C24.8006 32.9218 24.7673 32.8563 24.7673 32.7587V22.2664C24.7673 22.201 24.8328 22.1034 24.8982 22.1034H26.2052C26.3028 22.1034 26.3361 22.1688 26.3361 22.2664V32.7587Z" fill="white"/>
</svg>
