<svg width="92" height="92" viewBox="0 0 92 92" fill="none" xmlns="http://www.w3.org/2000/svg">
<path d="M69.2821 52.7506L68.4216 50.3125C68.4216 50.3125 72.007 44.8628 63.1153 42.9984C63.1153 42.9984 63.6889 36.2579 60.5338 33.1028C67.4177 26.3623 65.8401 16.1798 50.2079 22.7769C42.1767 7.43151 11.1991 43.4286 24.1064 49.1652C22.8157 50.8862 22.8157 59.4911 31.7074 60.3516C37.7308 73.2589 52.3591 74.1194 60.8206 70.2472C69.2821 66.375 74.1582 54.0413 69.2821 52.7506ZM31.564 58.4872C24.2498 57.7701 23.5328 47.7311 29.843 46.7272C36.1533 45.7233 37.7308 59.0609 31.564 58.4872ZM29.4128 44.8628C27.405 44.8628 24.9669 47.5877 24.9669 47.5877C15.2147 42.855 42.6069 11.4471 48.4869 23.6374C48.4869 23.6374 34.1455 30.5213 29.4128 44.8628ZM58.0957 57.053C58.0957 56.4794 55.084 57.9135 49.6343 56.0491C50.0645 53.0374 56.5182 58.6306 67.2743 51.3165L68.1348 54.3282C72.1504 53.6111 68.1348 67.2355 55.2274 67.0921C44.7582 66.9487 41.4596 56.1926 47.1962 50.3125C48.3435 49.1652 43.0372 46.8706 44.0411 41.8511C44.4713 39.6998 46.3357 36.5447 51.0684 37.4052C55.8011 38.2657 56.805 33.9633 59.9601 35.5408C63.1153 37.1184 61.2509 43.1418 61.6811 44.0023C62.1114 44.8628 66.7006 45.0062 67.5611 47.4443C68.4216 49.8823 61.6811 55.1887 51.2118 53.7545C48.7738 53.4677 47.3396 56.6228 48.9172 58.6306C52.0723 63.2199 64.9796 60.2082 67.1309 55.7623C61.6811 59.9213 50.4947 61.4989 49.6343 57.053C52.7894 58.4872 58.0957 57.6267 58.0957 57.053ZM39.3084 34.3935C42.4635 30.5213 46.6225 28.2267 46.6225 28.2267L45.7621 30.3779C45.7621 30.3779 48.7738 28.0832 52.0723 28.0832L50.925 29.2306C54.6538 29.374 56.2313 30.8081 56.2313 30.8081C56.2313 30.8081 47.483 28.2267 39.3084 34.3935ZM58.6694 39.9867C60.5338 39.8433 59.9601 44.1457 59.9601 44.1457H58.8128C58.8128 44.1457 56.805 40.1301 58.6694 39.9867ZM50.2079 44.7194C48.9172 44.8628 47.483 45.5799 47.6265 45.0062C48.2001 42.7116 53.5065 43.2852 53.363 45.293C53.2196 47.3008 52.0723 44.4325 50.2079 44.7194ZM53.2196 46.4403C53.363 46.7272 52.2157 46.4403 51.3552 46.5838C50.4947 46.7272 49.6343 47.1574 49.6343 46.8706C49.6343 46.5838 52.9328 45.293 53.2196 46.4403ZM56.0879 46.8706C56.5182 46.0101 58.2392 46.8706 57.8089 47.7311C57.3787 48.5916 55.6577 47.7311 56.0879 46.8706ZM59.6733 47.1574C58.8128 47.1574 58.8128 45.293 59.6733 45.293C60.5338 45.293 60.5338 47.3008 59.6733 47.3008V47.1574ZM33.8586 54.7584C34.2889 55.1887 32.9981 56.0491 31.9942 55.3321C30.9903 54.615 33.1416 51.173 30.5601 50.3125C27.9786 49.4521 28.6957 52.7506 27.9786 52.3204C27.2615 51.8901 28.9825 47.3008 31.9942 49.1652C35.0059 51.0296 31.1337 53.8979 32.8547 54.7584C34.5757 55.6189 33.5718 54.4716 33.8586 54.7584Z" fill="#FFA500"/>
</svg>
