<svg width="64" height="67" viewBox="0 0 64 67" fill="none" xmlns="http://www.w3.org/2000/svg">
<path d="M48.4207 22.6002V14.751C49.4597 14.2662 50.3394 13.4968 50.9573 12.5323C51.5753 11.5679 51.9062 10.448 51.9115 9.30305V9.12279C51.9115 5.78458 49.2009 3.07842 45.8573 3.07842H45.6767C44.071 3.07842 42.5311 3.71523 41.3957 4.84877C40.2603 5.98231 39.6224 7.51972 39.6224 9.12279V9.30305C39.6277 10.448 39.9586 11.5679 40.5766 12.5323C41.1946 13.4968 42.0743 14.2662 43.1132 14.751V22.6002C40.1272 23.0567 37.315 24.2927 34.9614 26.1832L13.3992 9.41655C13.553 8.86241 13.6332 8.29269 13.6422 7.72074C13.6448 6.37368 13.2472 5.05609 12.4997 3.93464C11.7522 2.8132 10.6884 1.93827 9.44273 1.42053C8.19709 0.902797 6.82563 0.765513 5.50183 1.02605C4.17804 1.28658 2.96137 1.93322 2.00574 2.88418C1.0501 3.83514 0.398425 5.0477 0.13314 6.36847C-0.132145 7.68924 0.000892423 9.05889 0.515401 10.3042C1.02991 11.5495 1.90278 12.6144 3.02361 13.3644C4.14444 14.1143 5.46289 14.5156 6.81215 14.5173C7.99258 14.5118 9.1509 14.1971 10.1714 13.6049L31.4037 30.1C29.4963 32.9768 28.5012 36.3606 28.5482 39.8102C28.5951 43.2598 29.6818 46.6153 31.6667 49.4393L25.209 55.8887C24.687 55.7221 24.1431 55.6336 23.5951 55.6261C22.4876 55.627 21.4052 55.9557 20.4846 56.5705C19.5641 57.1854 18.8468 58.0589 18.4234 59.0806C18 60.1023 17.8894 61.2265 18.1057 62.3109C18.322 63.3953 18.8554 64.3914 19.6386 65.1733C20.4217 65.9552 21.4194 66.4877 22.5056 66.7037C23.5919 66.9196 24.7178 66.8092 25.7412 66.3865C26.7646 65.9637 27.6396 65.2476 28.2554 64.3286C28.8713 63.4096 29.2005 62.3289 29.2013 61.2232C29.1941 60.6761 29.1055 60.133 28.9383 59.612L35.3269 53.2315C37.4102 54.8328 39.833 55.9367 42.4096 56.4587C44.9863 56.9808 47.6484 56.907 50.1921 56.2432C52.7358 55.5794 55.0935 54.3432 57.0847 52.6291C59.0759 50.9151 60.6477 48.7687 61.6797 46.3545C62.7117 43.9403 63.1764 41.3223 63.0384 38.7011C62.9004 36.0798 62.1633 33.5249 60.8835 31.232C59.6036 28.9392 57.8151 26.9692 55.6549 25.473C53.4947 23.9768 51.0201 22.9941 48.4207 22.6002M45.7725 48.4156C44.5919 48.4481 43.4166 48.2439 42.3163 47.8152C41.216 47.3865 40.2129 46.742 39.3663 45.9197C38.5197 45.0974 37.8468 44.1141 37.3873 43.0278C36.9278 41.9415 36.691 40.7742 36.691 39.595C36.691 38.4158 36.9278 37.2485 37.3873 36.1622C37.8468 35.0759 38.5197 34.0926 39.3663 33.2703C40.2129 32.448 41.216 31.8035 42.3163 31.3748C43.4166 30.9461 44.5919 30.7419 45.7725 30.7744C48.0609 30.8544 50.2289 31.8179 51.8198 33.462C53.4107 35.1061 54.3005 37.3025 54.3017 39.5885C54.3028 41.8745 53.4153 44.0717 51.826 45.7175C50.2367 47.3632 48.0698 48.3289 45.7815 48.4112" fill="#FFA500"/>
</svg>
